<?xml version="1.0" standalone="no"?>
<!DOCTYPE svg PUBLIC "-//W3C//DTD SVG 20010904//EN"
 "http://www.w3.org/TR/2001/REC-SVG-20010904/DTD/svg10.dtd">
<svg version="1.0" xmlns="http://www.w3.org/2000/svg"
 width="205.000000pt" height="245.000000pt" viewBox="0 0 205.000000 245.000000"
 preserveAspectRatio="xMidYMid meet">
<metadata>
Created by potrace 1.10, written by Peter Selinger 2001-2011
</metadata>
<g transform="translate(0.000000,245.000000) scale(0.100000,-0.100000)"
fill="#000000" stroke="none">
<path d="M905 2439 c-327 -28 -657 -262 -801 -568 -37 -77 -71 -181 -85 -254
-14 -80 -14 -308 1 -383 47 -238 190 -474 371 -611 30 -22 60 -57 74 -84 49
-96 160 -153 255 -131 36 8 59 8 100 -3 28 -8 54 -16 57 -18 2 -3 -5 -23 -16
-45 -22 -43 -17 -55 22 -57 37 -3 47 -48 15 -69 -13 -8 -23 -8 -38 2 -30 18
-33 15 -27 -29 9 -71 68 -136 157 -173 33 -13 40 -13 80 5 84 37 140 108 140
175 0 31 -2 35 -14 24 -8 -6 -25 -10 -38 -8 -32 4 -38 52 -8 68 12 6 24 9 27
6 4 -3 12 -1 19 5 10 8 10 17 -2 46 -8 19 -14 36 -12 37 2 2 42 12 91 24 152
38 243 92 410 246 161 147 247 270 305 438 44 124 54 194 54 358 -1 159 -14
228 -71 376 -61 158 -217 351 -364 453 -198 136 -434 193 -702 170z m369 -48
c102 -27 264 -105 342 -164 77 -59 188 -175 237 -250 56 -83 112 -209 138
-307 20 -72 23 -110 23 -245 0 -135 -3 -173 -23 -245 -48 -179 -149 -349 -282
-474 -62 -59 -88 -76 -136 -90 -67 -21 -282 -32 -353 -18 -44 8 -45 9 -42 42
5 61 31 91 105 121 146 59 261 152 341 277 87 136 122 269 113 431 -16 292
-206 538 -492 638 -73 25 -93 27 -220 27 -127 0 -147 -2 -220 -27 -290 -101
-478 -348 -492 -647 -10 -208 64 -398 213 -545 l54 -53 -35 -22 c-19 -12 -42
-31 -50 -43 -14 -20 -15 -20 -35 -2 -24 21 -27 9 -4 -16 12 -13 13 -22 5 -37
-6 -12 -14 -45 -19 -74 l-8 -53 -104 105 c-119 119 -183 217 -236 359 -91 243
-82 528 25 757 140 297 399 502 721 570 98 20 333 12 434 -15z m-34 -310 c162
-56 313 -183 388 -329 184 -353 49 -770 -303 -942 -100 -49 -187 -70 -291 -70
-115 0 -135 6 -166 50 -16 23 -47 48 -82 65 -47 23 -66 27 -116 23 l-61 -4
-58 57 c-141 137 -211 301 -211 495 0 319 209 586 525 670 80 21 294 13 375
-15z m-455 -1256 c44 -25 85 -65 67 -65 -6 0 -41 11 -78 25 -98 37 -150 31
-207 -23 -25 -24 -28 -25 -44 -10 -20 20 -10 36 45 70 67 41 147 42 217 3z
m14 -90 c109 -63 215 -110 317 -140 115 -34 276 -43 384 -22 41 8 76 14 78 13
6 -6 -123 -89 -180 -116 -96 -45 -172 -62 -301 -67 -167 -8 -297 21 -440 95
-75 39 -107 75 -113 130 -8 63 7 70 58 30 78 -63 118 -71 118 -23 0 18 -13 28
-75 55 -41 18 -72 37 -69 42 14 22 72 48 108 48 28 0 60 -12 115 -45z m-281
-8 c8 -9 8 -24 1 -50 -12 -44 1 -102 32 -141 12 -15 55 -44 98 -66 l76 -39
-45 0 c-115 -1 -210 96 -210 213 0 49 14 96 29 96 4 0 13 -6 19 -13z m440 -12
c1 -1 -3 -7 -10 -12 -9 -7 -25 -5 -53 8 l-40 19 50 -7 c28 -3 51 -7 53 -8z
m211 -6 c-6 -12 -16 -38 -22 -59 l-12 -38 -83 30 c-114 41 -105 57 43 76 39 5
74 10 78 10 4 1 3 -8 -4 -19z m-14 -342 c1 -1 5 -14 9 -29 5 -22 3 -28 -11
-28 -26 0 -53 -31 -53 -62 0 -33 31 -68 60 -68 11 0 20 -7 20 -15 0 -24 -68
-92 -115 -115 -42 -20 -45 -20 -77 -4 -42 21 -95 71 -114 106 -14 27 -14 28
10 28 70 0 88 109 20 126 -14 4 -23 9 -22 13 2 3 10 18 17 32 l13 26 121 -4
c66 -2 121 -4 122 -6z"/>
<path d="M824 2315 c-3 -25 -8 -45 -11 -45 -2 0 -16 14 -30 30 -22 27 -53 40
-53 24 0 -4 20 -29 45 -55 25 -26 45 -57 45 -68 0 -21 17 -37 27 -27 4 3 2 21
-4 39 -5 17 -7 43 -3 57 18 69 19 90 5 90 -9 0 -16 -16 -21 -45z"/>
<path d="M1234 2329 c-68 -34 -61 -160 10 -171 57 -10 106 36 106 100 0 58
-65 97 -116 71z m64 -25 c42 -29 19 -124 -30 -124 -27 0 -58 28 -58 52 0 25
26 75 42 81 20 8 22 8 46 -9z"/>
<path d="M1011 2301 c-17 -11 -7 -41 13 -41 22 0 30 20 15 36 -9 8 -19 10 -28
5z"/>
<path d="M596 2268 c-42 -21 -55 -33 -48 -40 8 -8 15 -8 26 1 21 18 27 11 61
-58 16 -34 35 -61 42 -61 18 0 18 1 -22 80 -19 39 -32 70 -27 70 15 0 45 27
36 32 -5 3 -35 -7 -68 -24z"/>
<path d="M1422 2186 c-47 -82 -48 -86 -28 -86 7 0 19 14 26 30 14 34 26 37 56
15 20 -13 34 -11 34 5 0 4 -13 13 -30 20 -26 11 -28 15 -18 34 6 11 12 23 14
25 1 2 16 -6 33 -18 19 -14 32 -18 36 -11 4 6 5 12 4 14 -13 9 -77 46 -81 46
-2 0 -23 -33 -46 -74z"/>
<path d="M452 2178 c-8 -8 2 -27 34 -65 24 -30 48 -62 53 -71 7 -13 13 -14 21
-6 9 9 -2 29 -43 82 -39 50 -57 68 -65 60z"/>
<path d="M332 2067 c-26 -27 -28 -59 -6 -78 12 -10 24 -10 60 -1 68 18 88 -7
37 -47 -29 -24 -26 -36 7 -26 29 9 53 49 45 75 -11 34 -45 44 -88 27 -32 -14
-37 -14 -49 0 -10 13 -8 19 15 37 15 12 27 25 27 29 0 15 -28 6 -48 -16z"/>
<path d="M1593 2069 c-16 -16 -5 -39 19 -39 14 0 19 6 16 22 -4 25 -19 33 -35
17z"/>
<path d="M1708 1954 c-53 -28 -65 -95 -25 -132 65 -61 181 16 147 98 -21 50
-68 64 -122 34z m95 -35 c16 -25 0 -67 -33 -84 -38 -20 -46 -19 -70 5 -27 27
-25 46 5 76 29 29 81 30 98 3z"/>
<path d="M200 1878 l-30 -41 77 -43 c43 -23 81 -40 86 -37 15 9 6 21 -23 33
-32 13 -34 17 -21 39 6 10 21 12 49 8 29 -3 42 -1 46 9 4 11 -6 14 -45 14 -30
0 -48 4 -44 10 7 12 -30 50 -50 50 -8 0 -28 -19 -45 -42z m68 -11 c2 -10 1
-25 -2 -33 -5 -12 -10 -13 -28 -3 -32 16 -31 15 -18 39 13 25 43 23 48 -3z"/>
<path d="M1864 1744 l-29 -37 -53 15 c-28 9 -52 13 -52 9 1 -17 19 -29 54 -35
l38 -7 -26 -28 c-14 -15 -26 -36 -26 -47 1 -15 9 -10 39 24 l38 44 42 -12 c24
-6 45 -9 48 -6 11 10 -8 24 -43 31 l-36 6 26 28 c26 27 34 51 18 51 -5 0 -22
-16 -38 -36z"/>
<path d="M118 1681 l-15 -49 81 -21 c44 -12 84 -21 87 -21 9 0 31 91 24 98 -8
8 -25 -19 -25 -40 0 -23 -14 -30 -44 -22 -22 5 -23 8 -14 36 7 20 7 33 0 40
-7 7 -13 0 -17 -26 -8 -38 -8 -39 -42 -30 -20 6 -21 8 -8 45 11 31 11 39 1 39
-6 0 -19 -22 -28 -49z"/>
<path d="M84 1532 c2 -9 32 -27 69 -41 65 -25 85 -41 51 -41 -39 0 -124 -32
-124 -47 0 -10 6 -13 18 -8 9 3 50 16 90 28 98 29 95 43 -17 88 -67 27 -88 32
-87 21z"/>
<path d="M1860 1541 c-81 -6 -101 -24 -32 -29 39 -3 42 -5 42 -33 0 -17 5 -29
13 -29 9 0 12 11 9 35 -4 32 -2 35 21 35 20 0 26 -6 31 -35 7 -37 26 -49 26
-16 0 38 -13 81 -24 79 -6 -1 -45 -4 -86 -7z"/>
<path d="M1802 1350 c-38 -36 -28 -101 19 -125 43 -23 86 -19 114 10 55 54 15
135 -68 135 -30 0 -50 -6 -65 -20z m120 -27 c56 -50 -36 -112 -100 -67 -28 19
-28 48 -1 75 24 24 70 21 101 -8z"/>
<path d="M205 1319 c-106 -17 -115 -20 -115 -35 0 -10 6 -13 18 -10 17 5 140
26 155 26 4 0 7 7 7 15 0 8 -3 14 -7 14 -5 -1 -30 -5 -58 -10z"/>
<path d="M203 1198 c-48 -18 -83 -36 -83 -44 0 -11 16 -8 65 11 l66 24 -20
-27 c-11 -15 -34 -43 -50 -62 -46 -54 -31 -61 62 -27 96 36 93 35 81 46 -5 6
-32 0 -66 -14 -32 -13 -58 -21 -58 -18 0 2 20 28 45 56 25 29 45 60 45 69 0
10 -1 18 -2 17 -2 0 -40 -14 -85 -31z"/>
<path d="M1746 1162 c-12 -11 -5 -20 24 -32 45 -19 35 -44 -19 -50 -63 -7 -69
-33 -7 -29 37 3 47 1 52 -13 6 -20 37 -32 62 -24 16 5 58 74 50 81 -14 12
-158 72 -162 67z m118 -75 c17 -12 17 -14 -1 -35 -16 -20 -20 -21 -37 -9 -13
9 -16 20 -12 35 8 25 24 28 50 9z"/>
<path d="M268 982 c-36 -24 -54 -42 -50 -50 6 -8 26 1 67 28 68 45 68 45 89
24 26 -26 19 -41 -44 -85 -41 -28 -57 -46 -51 -52 7 -7 30 3 68 30 64 45 77
76 48 119 -22 35 -60 31 -127 -14z"/>
<path d="M1635 963 c-14 -21 -25 -45 -25 -55 0 -53 60 -105 108 -94 15 4 41
23 59 43 l31 37 -66 53 c-37 29 -70 53 -74 53 -4 0 -19 -17 -33 -37z m86 -35
l49 -41 -22 -24 c-35 -37 -79 -29 -104 18 -13 27 -13 32 3 59 9 17 19 30 21
30 2 0 26 -19 53 -42z"/>
<path d="M770 1915 c-24 -35 -27 -45 -15 -45 14 0 14 -3 -1 -30 l-18 -30 -23
22 c-16 15 -19 24 -12 29 7 4 -3 16 -27 33 -21 14 -39 24 -41 22 -2 -1 7 -30
18 -65 18 -53 24 -61 41 -55 27 8 175 9 213 0 30 -7 31 -6 52 59 12 36 19 65
17 65 -3 0 -19 -10 -37 -22 -18 -13 -34 -24 -37 -26 -2 -2 1 -7 8 -11 9 -5 6
-13 -11 -30 l-24 -22 -18 27 c-13 20 -14 28 -5 34 9 5 4 19 -15 49 -15 22 -29
41 -31 41 -2 0 -17 -20 -34 -45z m53 -17 c2 -7 3 -24 2 -38 -3 -37 -37 -34
-41 4 -2 16 -1 33 2 38 8 12 31 10 37 -4z"/>
<path d="M1215 1919 c-19 -30 -24 -44 -15 -49 9 -6 8 -14 -5 -34 l-18 -27 -24
22 c-17 17 -20 25 -11 30 7 4 10 10 8 12 -18 14 -69 47 -73 47 -3 0 4 -29 16
-65 21 -65 22 -66 52 -59 38 9 186 8 213 0 17 -6 23 1 38 46 9 29 19 59 22 67
4 10 1 11 -14 3 -40 -22 -59 -42 -48 -49 7 -5 2 -16 -16 -30 l-27 -22 -17 30
c-15 26 -16 29 -1 29 12 0 9 10 -15 45 -17 25 -32 45 -34 45 -2 0 -16 -19 -31
-41z m51 -54 c1 -29 -3 -35 -20 -35 -18 0 -22 6 -21 33 3 69 38 71 41 2z"/>
<path d="M698 1763 c-25 -6 -22 -20 5 -27 37 -10 174 -7 204 5 26 10 27 12 8
19 -21 9 -187 11 -217 3z"/>
<path d="M1138 1764 c-32 -9 -19 -23 28 -30 50 -7 191 -1 201 10 3 3 3 9 -1
14 -9 8 -202 13 -228 6z"/>
<path d="M680 1438 l0 -218 149 0 c148 0 150 0 169 -25 11 -14 23 -25 27 -25
4 0 16 11 27 25 19 25 21 25 169 25 l149 0 0 218 0 217 -155 -5 c-129 -4 -157
-8 -172 -22 -16 -17 -18 -17 -36 0 -16 14 -46 18 -173 22 l-154 5 0 -217z
m305 167 c25 -24 25 -27 25 -201 0 -164 -1 -176 -17 -168 -10 4 -78 10 -150
12 l-133 4 0 189 0 189 125 0 c120 0 127 -1 150 -25z m355 -164 l0 -189 -132
-4 c-73 -2 -141 -8 -150 -12 -17 -8 -18 4 -18 168 0 174 0 177 25 201 23 24
30 25 150 25 l125 0 0 -189z"/>
<path d="M740 1550 c0 -16 5 -30 10 -30 6 0 10 12 10 26 0 15 4 23 11 18 6 -3
9 -15 6 -25 -6 -23 8 -25 17 -3 8 21 -11 44 -35 44 -14 0 -19 -7 -19 -30z"/>
<path d="M817 1574 c-12 -12 -8 -52 6 -57 22 -8 39 8 35 34 -3 23 -27 37 -41
23z m29 -40 c-5 -13 -10 -14 -18 -6 -6 6 -8 18 -4 28 5 13 10 14 18 6 6 -6 8
-18 4 -28z"/>
<path d="M887 1550 c10 -17 19 -26 21 -21 5 14 -17 51 -29 51 -6 0 -2 -14 8
-30z"/>
<path d="M917 1568 c-5 -18 3 -48 14 -48 5 0 9 14 9 30 0 30 -15 41 -23 18z"/>
<path d="M955 1550 c0 -16 5 -32 11 -34 6 -2 10 10 10 30 -1 42 -21 46 -21 4z"/>
<path d="M870 1519 c0 -5 5 -7 10 -4 6 3 10 8 10 11 0 2 -4 4 -10 4 -5 0 -10
-5 -10 -11z"/>
<path d="M778 1440 c6 -39 17 -39 18 0 1 17 -4 30 -11 30 -7 0 -10 -11 -7 -30z"/>
<path d="M820 1454 c0 -8 -4 -12 -10 -9 -16 10 -12 -11 5 -25 13 -11 15 -8 15
14 0 34 16 33 28 -1 l9 -28 17 33 c9 17 12 32 6 32 -5 0 -10 -8 -10 -17 -1
-17 -1 -17 -14 0 -16 21 -46 22 -46 1z"/>
<path d="M905 1459 c-4 -6 1 -17 11 -25 17 -14 17 -15 2 -10 -10 3 -18 1 -18
-4 0 -6 9 -10 20 -10 23 0 26 19 8 39 -10 11 -10 13 0 7 6 -4 12 -2 12 3 0 14
-27 14 -35 0z"/>
<path d="M931 1349 c-7 -17 -10 -19 -10 -6 -1 9 -7 17 -15 17 -12 0 -12 -5 1
-31 l16 -32 14 33 c7 18 11 35 8 38 -2 3 -9 -6 -14 -19z"/>
<path d="M770 1330 c0 -16 5 -30 10 -30 6 0 10 14 10 30 0 17 -4 30 -10 30 -5
0 -10 -13 -10 -30z"/>
<path d="M808 1330 c-5 -30 -4 -30 44 -30 26 0 48 4 48 10 0 5 -7 7 -16 3 -14
-5 -16 -1 -12 20 3 15 1 27 -3 27 -5 0 -9 -10 -9 -23 0 -16 -6 -23 -21 -24
-17 -2 -20 3 -16 23 2 13 1 24 -3 24 -4 0 -10 -13 -12 -30z"/>
<path d="M1081 1548 c0 -28 2 -30 9 -13 8 19 9 19 9 1 1 -14 4 -17 12 -9 8 8
7 17 -3 32 -18 30 -28 26 -27 -11z"/>
<path d="M1126 1572 c-6 -10 4 -52 13 -52 3 0 6 14 6 30 0 29 -8 39 -19 22z"/>
<path d="M1160 1550 c0 -16 5 -30 10 -30 6 0 10 14 10 30 0 17 -4 30 -10 30
-5 0 -10 -13 -10 -30z"/>
<path d="M1190 1577 c0 -2 11 -17 25 -33 27 -32 34 -22 9 14 -13 19 -34 30
-34 19z"/>
<path d="M1236 1565 c4 -8 8 -15 10 -15 2 0 4 7 4 15 0 8 -4 15 -10 15 -5 0
-7 -7 -4 -15z"/>
<path d="M1271 1562 c-7 -13 -10 -28 -7 -35 2 -7 5 -4 5 7 1 16 3 16 21 -5 10
-13 19 -19 20 -13 0 5 -4 14 -9 20 -5 5 -11 18 -13 29 -4 19 -4 19 -17 -3z"/>
<path d="M1196 1531 c-4 -7 -5 -15 -2 -18 9 -9 19 4 14 18 -4 11 -6 11 -12 0z"/>
<path d="M1110 1459 c0 -5 5 -7 10 -4 6 4 10 -5 10 -19 0 -15 6 -26 14 -26 9
0 12 8 8 26 -3 19 -1 25 7 20 6 -4 11 -2 11 3 0 6 -13 11 -30 11 -16 0 -30 -5
-30 -11z"/>
<path d="M1178 1440 c-3 -17 0 -30 6 -30 6 0 11 14 11 30 0 17 -3 30 -6 30 -4
0 -9 -13 -11 -30z"/>
<path d="M1214 1456 c-10 -26 4 -48 28 -44 17 2 23 10 23 28 0 18 -6 26 -23
28 -13 2 -25 -3 -28 -12z m36 -16 c0 -11 -4 -20 -10 -20 -5 0 -10 9 -10 20 0
11 5 20 10 20 6 0 10 -9 10 -20z"/>
<path d="M1118 1336 c15 -30 18 -31 24 -15 10 25 21 24 13 -1 -4 -11 -2 -20 4
-20 6 0 11 14 11 30 0 34 -7 38 -26 13 -12 -16 -13 -16 -14 -2 0 9 -7 19 -15
22 -11 5 -11 0 3 -27z"/>
<path d="M1204 1362 c-6 -4 -13 -19 -16 -34 -5 -26 -3 -28 28 -28 26 0 34 4
34 18 0 9 -4 13 -8 7 -10 -14 -42 -18 -42 -5 0 5 6 10 13 10 8 0 8 3 -2 9 -11
7 -10 10 5 13 11 2 14 6 9 10 -6 4 -16 4 -21 0z"/>
<path d="M1255 1343 c4 -10 8 -24 8 -30 0 -7 6 -13 13 -13 9 0 10 7 1 30 -6
17 -15 30 -20 30 -5 0 -6 -8 -2 -17z"/>
<path d="M1105 1310 c-3 -5 -1 -10 4 -10 6 0 11 5 11 10 0 6 -2 10 -4 10 -3 0
-8 -4 -11 -10z"/>
<path d="M540 1625 c-16 -20 5 -48 30 -40 26 8 50 -5 50 -26 0 -20 -24 -26
-35 -9 -9 15 -42 12 -48 -5 -8 -19 10 -30 48 -30 24 0 31 -5 33 -24 3 -20 1
-23 -15 -16 -37 16 -58 11 -61 -14 -3 -22 -2 -23 37 -16 37 6 41 5 41 -14 0
-25 -26 -39 -42 -23 -15 15 -38 3 -38 -18 0 -24 18 -36 33 -21 18 18 47 13 47
-8 0 -23 -17 -31 -52 -24 -30 6 -45 -19 -22 -38 12 -10 20 -10 35 -1 27 17 39
15 39 -8 0 -12 -7 -21 -17 -21 -10 -1 -25 -2 -33 -3 -25 -2 -40 -16 -33 -31 6
-17 39 -20 48 -5 9 15 35 12 35 -5 0 -17 -30 -35 -59 -35 -28 0 -36 -19 -17
-38 14 -14 17 -14 33 0 36 30 47 33 41 10 -6 -22 -5 -22 167 -22 141 0 175 -3
185 -15 17 -20 88 -19 111 1 15 13 45 16 188 14 l171 -1 0 241 c0 207 -2 240
-15 240 -13 0 -15 -32 -15 -225 l0 -225 -161 0 c-146 0 -163 -2 -186 -20 -14
-11 -31 -20 -38 -20 -7 0 -24 9 -38 20 -23 18 -40 20 -186 20 l-161 0 0 225 0
225 -23 -5 c-15 -4 -28 -1 -36 9 -17 20 -25 20 -41 1z"/>
<path d="M991 1021 c-24 -30 -29 -41 -17 -41 20 0 20 -9 -2 -37 l-17 -22 -24
20 c-18 15 -22 22 -13 28 9 5 0 17 -29 36 -23 15 -40 21 -37 14 3 -8 13 -39
23 -70 18 -57 18 -57 49 -48 17 5 62 9 101 9 39 0 84 -4 101 -9 31 -9 31 -9
49 48 10 31 20 62 23 70 3 7 -14 1 -37 -14 -30 -21 -38 -31 -29 -37 10 -6 7
-13 -12 -28 -25 -19 -25 -19 -42 3 -22 27 -22 35 -3 39 11 2 6 13 -18 42 l-33
39 -33 -42z m54 -51 c0 -29 -4 -35 -22 -36 -19 -1 -21 3 -18 35 1 20 3 37 4
39 1 2 9 2 19 0 12 -2 17 -13 17 -38z"/>
<path d="M945 874 c-48 -12 -51 -15 -31 -26 23 -13 168 -16 210 -5 50 14 14
29 -76 33 -45 1 -92 1 -103 -2z"/>
<path d="M894 555 c-4 -9 -2 -21 4 -27 15 -15 44 -1 40 19 -4 23 -36 29 -44 8z"/>
<path d="M1150 520 c-18 -11 -4 -42 17 -38 10 2 19 10 21 19 4 19 -19 31 -38
19z"/>
</g>
</svg>
