<svg clip-rule="evenodd" fill-rule="evenodd" stroke-linejoin="round" stroke-miterlimit="2" viewBox="0 0 560 400" xmlns="http://www.w3.org/2000/svg"><g fill="#8c1515" fill-rule="nonzero" transform="matrix(.671094 0 0 .671094 38.4065 128.157)"><path d="m389.917 53.925c5.188-8.983 15.636-13.719 25.757-13.809 9.237-.597 19.685.94 26.156 8.242-3.29 4.338-6.435 8.767-9.725 13.105-3.669-4.212-6.688-10.141-12.617-11.334-5.838-1.808-13.176 1.229-14.695 7.483-2.458 9.924-.976 20.299-1.338 30.421h18.962v11.298h-18.98c0 17.027 0 34.054-.018 51.081-.072 4.826.705 9.598 1.609 14.334 4.338 2.006 9.02 3.036 13.81 3.127-.019 1.175-.037 3.542-.055 4.735-15.508-1.012-31.036-1.319-46.526-.018 0-.994.036-2.982.036-3.976 4.898-.868 10.972-3.145 11.171-9.038 1.898-20.009.614-40.164.994-60.245-3.778 0-7.556 0-11.334-.018.018-1.699.054-3.416.072-5.115 3.832-1.772 7.574-3.742 11.261-5.766 0-11.605-.687-24.15 5.459-34.506z"/><path d="m669.488 40.098c-10.032 2.313-20.19 4.265-30.493 4.717-.109.94-.308 2.819-.399 3.759 3.832 1.157 10.087.851 10.358 6.201 1.537 10.846.452 21.852.759 32.769-14.767-2.53-31.271-2.368-43.832 6.833-13.756 9.634-18.473 27.602-17.1 43.617.778 12.418 6.995 25.161 18.256 31.216 13.411 7.375 30.566 5.857 43.128-2.639.091 2.513.145 5.025.163 7.537 9.724-2.476 19.667-3.868 29.663-4.446v-4.339c-14.167-2.413-10.25-8.969-11.244-20.117.018-35.029-.524-70.078.741-105.106zm-36.751 56.49c5.982-.064 12.066 1.847 16.976 5.182.019 18.853-.036 37.705.036 56.557-10.519 4.827-24.745 4.483-32.987-4.446-7.068-7.556-8.261-18.618-7.628-28.487.705-8.984 2.586-19.251 10.43-24.819 3.931-2.696 8.521-3.939 13.173-3.988z"/><path d="m73.214 51.611c11.912-.723 23.859.054 35.645 1.717-.705 8.387-.633 16.829.018 25.216-1.139 0-3.416.018-4.555.018-.904-5.242-1.844-11.605-7.429-13.937-8.279-3.488-17.968-3.832-26.553-1.337-11.225 3.325-13.069 19.846-4.718 27.059 10.448 9.146 23.245 15.129 33.946 24.004 16.755 13.339 14.568 44.393-5.314 53.738-16.738 7.736-36.386 5.784-53.666.922.108-8.31-.199-16.62-.579-24.919 1.247-.018 3.759-.073 5.025-.091.885 5.224 1.699 11.641 6.995 14.334 9.471 5.314 21.69 5.748 31.524 1.175 12.273-6.779 10.013-26.372-1.465-32.97-9.959-7.67-21.401-13.34-30.601-21.999-10.195-9.472-11.46-26.066-4.898-37.905 5.368-9.436 16.195-14.153 26.625-15.021z"/><path d="m143.906 69.38c.94.054 2.837.144 3.777.198-.018 6.309-.018 12.599-.018 18.908h28.921v10.845h-28.921c.109 15.184-.235 30.385.163 45.587.398 5.784.56 12.996 5.965 16.539 6.814 4.049 14.966 1.519 21.781-1.138 2.097 5.133-3.235 8.007-6.941 10.14-8.694 4.212-19.304 4.664-28.288 1.157-7.682-2.874-11.387-11.279-11.785-18.979-.922-17.751 0-35.536.144-53.304h-11.297c-.019-1.193-.037-2.368-.055-3.543 12.274-4.628 20.552-15.202 26.553-26.408z"/><path d="m221.303 85.618c-13.032-.134-26.174 6.339-30.361 19.424 1.139.651 3.452 1.934 4.609 2.585 5.007-8.839 16.702-13.376 25.919-8.278 7.231 3.29 7.846 12.128 7.702 19.051-11.37 3.652-23.137 6.526-33.874 11.877-12.87 6.796-14.533 26.064-5.314 36.494 10.864 9.959 28.993 8.35 39.73-1.068 3.271 6.471 11.007 8.948 17.749 7.05 5.875-1.139 9.76-6.037 13.611-10.176-.669-.76-2.024-2.297-2.693-3.074-2.422.615-5.152 2.531-7.52.669-3.072-2.115-2.693-6.362-2.91-9.634.217-14.027.994-28.088.253-42.133-.362-7.266-3.615-14.696-10.05-18.51-5.027-2.79-10.928-4.216-16.851-4.276zm7.669 43.736c.072 9.453 0 18.906.073 28.36-6.055 2.693-13.25 5.187-19.63 2.096-7.809-4.157-7.483-16.592-1.03-21.816 6.2-4.266 13.556-6.272 20.587-8.64z"/><path d="m470.425 85.973c-9.526.109-19.36 2.476-26.808 8.676-11.08 8.966-15.887 23.788-15.399 37.705-.054 11.912 3.651 24.619 13.033 32.537 11.08 9.652 27.185 10.61 40.976 7.736 14.551-3.2 25.486-15.943 28.577-30.222 3.326-14.822 1.934-32.047-8.26-44.013-7.845-9.182-20.407-12.653-32.119-12.418zm.126 10.117c5.119.099 10.185 2.202 13.466 6.278 5.946 7.284 7.537 17.081 7.971 26.227.073 9.959-1.193 20.713-7.465 28.847-6.164 7.971-19.448 8.857-26.552 1.681-5.441-5.043-7.466-12.544-8.695-19.593-1.283-9.364-.957-19.107 1.989-28.126 2.061-6.038 6.073-12.147 12.435-14.208 2.187-.785 4.525-1.153 6.852-1.108z"/><path d="m267.871 91.721c10.105-.163 20.354-1.211 29.68-5.387.326 2.404.579 4.808.778 7.249 10.718-7.014 24.564-9.743 36.837-5.405 8.785 2.946 14.931 11.551 15.708 20.66 1.807 17.335-.813 34.904 1.5 52.203.253 5.44 6.11 6.669 10.358 7.555.018 1.012.018 3.037.036 4.049-14.352-1.139-43.092-.054-43.092-.054l-.054-4.099s10.367-2.914 11.026-5.897c2.368-12.869 1.807-26.173 1.681-39.242-.47-7.808-.271-17.569-7.736-22.323-8.008-4.609-17.823-2.476-26.011.506.055 16.919 0 33.855 0 50.775.235 4.518-.09 9.67 2.856 13.429 2.477 1.717 5.586 2.025 8.423 2.82.019 1.012.037 3.055.037 4.085-14.154-.922-28.343-1.518-42.478-.018 0-1.012.036-3.019.036-4.013 4.302-.994 9.978-2.35 10.791-7.555 1.97-12.472.452-25.216.922-37.796-.181-7.176.614-14.443-.651-21.528-.994-4.845-6.905-4.573-10.629-5.532 0-1.12-.018-3.362-.018-4.482z"/><path d="m520.453 91.341c10.123-.145 20.244-1.518 29.861-4.754l.271 7.447c9.725-7.827 24.384-9.815 34.741-2.061l-10.8 16.484c-5.043-7.773-15.273-9.652-23.353-5.694 0 0-.054 34.217.054 51.316.416 3.814-.181 8.767 3.398 11.261 3.453 2.024 7.646 1.916 11.496 2.53 0 1.175-.018 3.561-.018 4.736-15.527-1.048-31.09-1.265-46.617-.036l-.003-4.699c5.005-.854 10.216-2.585 10.975-5.568 2.151-7.356 1.103-15.147 1.32-22.721-.217-12.057.433-24.131-.29-36.169-.054-5.856-6.687-6.38-10.989-7.23.007-1.66-.029-3.365-.036-4.844z"/></g></svg>